# xmcd
#
# Track frame offsets:
#	210
#	14163
#	27154
#	41141
#	59027
#	73988
#	89349
#	115558
#	125719
#	139168
#	151920
#	165892
#	177106
#	190042
#	206478
#	219305
#	231083
#	258572
#
# Disc length: 3820 seconds
#
# Revision: 1
# Processed by: cddbd v1.5.1PL0 Copyright (c) Steve Scherf et al.
# Submitted via: audiograbber 1.83.01
#
DISCID=020eea12
DTITLE=Various Artist - Lady Sings the Blues 2 Disk 1
DYEAR=2003
DGENRE=Blues
TTITLE0=Aretha Franklin - All night long
TTITLE1=Peggy Lee - As time goes by
TTITLE2=Nina Simone - I wish I knew (how it would feel to be free)
TTITLE3=Sarah Vaughan - Lover man (Oh where can you be)
TTITLE4=Billie Holiday - Georgia on my mind
TTITLE5=Dinah Washington - Is you is or is you ain't my baby
TTITLE6=Jacinta - Baby won't you please come home
TTITLE7=Julie London - Go slow
TTITLE8=Nancy Wilson - The nearness of you
TTITLE9=Dusty Springfield - You don't have to say you love me
TTITLE10=P P Arnold - The first cut is the deepest
TTITLE11=An Peebles - I can't stand the rain
TTITLE12=Irma Thomas - Time is on my side
TTITLE13=Lou Rawls and Diane Reeves - At last
TTITLE14=Julie London - In the wee small hours of the morning
TTITLE15=Ella Fitzgerald - (It's only a) paper moon
TTITLE16=Joss Stone - The chokin' kind
TTITLE17=Data Track - Data Track
EXTD=
EXTT0=
EXTT1=
EXTT2=
EXTT3=
EXTT4=
EXTT5=
EXTT6=
EXTT7=
EXTT8=
EXTT9=
EXTT10=
EXTT11=
EXTT12=
EXTT13=
EXTT14=
EXTT15=
EXTT16=
EXTT17=Data Track
PLAYORDER=
